<?xml version="1.0" encoding="utf-8"?>
<!-- Generator: Adobe Illustrator 26.0.2, SVG Export Plug-In . SVG Version: 6.00 Build 0)  -->
<svg version="1.1" id="Layer_1" xmlns="http://www.w3.org/2000/svg" xmlns:xlink="http://www.w3.org/1999/xlink" x="0px" y="0px"
	 viewBox="0 0 192.4 51.8" style="enable-background:new 0 0 192.4 51.8;" xml:space="preserve">
<style type="text/css">
	.st0{fill:#FFFFFF;}
</style>
<path class="st0" d="M133.5,14.3c-2.5,0-5,0.5-7.2,1.4V0h-11.5v30.7h-7.3C106.4,23,99.8,17,91.8,17v6c5.5,0,10,4.5,10,10
	s-4.5,10-10,10v6c7.6,0,13.9-5.3,15.6-12.4h7.5v15.2h11.5v-1.4c2.2,0.9,4.6,1.4,7.2,1.4c10.3,0,18.8-8.4,18.8-18.8
	S143.9,14.3,133.5,14.3z M133.5,40.3c-3.7,0-6.7-2.7-7.2-6.2V32c0.5-3.5,3.5-6.2,7.2-6.2c4,0,7.3,3.3,7.3,7.3S137.5,40.3,133.5,40.3
	z M91.8,40.3c4,0,7.2-3.2,7.2-7.2s-3.2-7.2-7.2-7.2c-3.1,0-5.8,2-6.8,4.8h-7.3V0H66.2v15.8c-2.2-0.9-4.7-1.5-7.3-1.5
	c-10.3,0-18.8,8.4-18.8,18.8s8.4,18.8,18.8,18.8c2.6,0,5-0.5,7.3-1.5v1.5h11.5V36.7h7.8C86.8,38.8,89.1,40.3,91.8,40.3z M58.9,40.3
	c-4,0-7.3-3.3-7.3-7.3s3.3-7.3,7.3-7.3s7.3,3.3,7.3,7.3S62.9,40.3,58.9,40.3z M173.6,14.3c-2.6,0-5,0.5-7.2,1.5V0h-11.5v32.5
	c0,0.2,0,0.4,0,0.6s0,0.4,0,0.6v18.2h11.5v-1.5c2.2,0.9,4.7,1.5,7.2,1.5c10.3,0,18.8-8.4,18.8-18.8S184,14.3,173.6,14.3z
	 M173.6,40.3c-3.8,0-6.9-2.9-7.2-6.7v-1.2c0.3-3.7,3.4-6.7,7.2-6.7c4,0,7.3,3.3,7.3,7.3S177.6,40.3,173.6,40.3z M25.2,36.3h12
	c0.2-1.1,0.3-2.2,0.3-3.3c0-0.9-0.1-1.8-0.2-2.7c-1.3-9.1-9.1-16-18.5-16C8.4,14.3,0,22.7,0,33.1s8.4,18.8,18.8,18.8
	c8.3,0,15.4-5.5,17.8-13H23.2c-1.2,1-2.8,1.5-4.4,1.5c-1.7,0-3.2-0.6-4.5-1.5c-0.8-0.7-1.5-1.5-2-2.5l0,0h5L25.2,36.3z M12.1,30.3
	c1.1-2.6,3.7-4.5,6.7-4.5s5.6,1.9,6.7,4.5H12.1z"/>
</svg>
